Coordinates
version=1
nRows=8
nColumns=36
inDegrees=yes

Units are S.I. units (second, meters, Newtons, ...)
If the header above contains a line with 'inDegrees', this indicates whether rotational values are in degrees (yes) or radians (no).

endheader
time	pelvis_tilt	pelvis_list	pelvis_rotation	pelvis_tx	pelvis_ty	pelvis_tz	hip_flexion_r	hip_adduction_r	hip_rotation_r	knee_angle_r	knee_angle_r_beta	ankle_angle_r	subtalar_angle_r	mtp_angle_r	hip_flexion_l	hip_adduction_l	hip_rotation_l	knee_angle_l	knee_angle_l_beta	ankle_angle_l	subtalar_angle_l	mtp_angle_l	lumbar_extension	lumbar_bending	lumbar_rotation	arm_flex_r	arm_add_r	arm_rot_r	elbow_flex_r	pro_sup_r	arm_flex_l	arm_add_l	arm_rot_l	elbow_flex_l	pro_sup_l
      1.87000000	    -22.77624612	      4.38409940	     -3.26184378	     -0.27932147	      0.69230168	     -0.55784568	     76.52134563	      3.55208482	     15.44573543	     91.05141428	      1.58914697	     35.31161721	    -13.63393039	     -7.49997366	     79.82257481	     -6.30624494	     -1.27277933	     88.35549629	      1.54209432	     28.58524209	    -14.29184960	     -7.49997366	    -21.21209701	     -3.65605232	      3.05446821	    135.32991740	     -6.17607844	     32.17563586	     71.63517581	    103.46440892	    136.53084426	     -4.31369308	     28.23460866	     71.08255325	    105.61734659
      1.88000000	    -22.66000189	      4.47115010	     -3.46472938	     -0.27256373	      0.70256569	     -0.55725303	     74.80320162	      3.55413404	     15.57829267	     89.30106075	      1.55859754	     34.69014390	    -14.05118324	     -7.49997403	     77.99065081	     -6.21846955	     -1.46517781	     86.66710716	      1.51262637	     28.18058068	    -14.47095545	     -7.49997403	    -19.93134146	     -3.88183855	      3.32833440	    137.61898627	     -6.32784909	     32.80040970	     72.44455980	    103.24620376	    139.01121526	     -4.39623333	     29.59546084	     71.11368030	    105.75533897
      1.89000000	    -22.59155927	      4.58932882	     -3.66274048	     -0.26548882	      0.71340160	     -0.55667621	     73.08485496	      3.47447149	     15.71365320	     87.42011092	      1.52576877	     33.94779752	    -14.30612050	     -7.49997430	     76.11875233	     -6.00926706	     -1.57697033	     84.81672748	      1.48033116	     27.61988658	    -14.72220536	     -7.49997430	    -18.44090537	     -4.06749650	      3.68695127	    139.58238648	     -6.35929724	     33.26937313	     73.27356183	    103.13174685	    140.99325047	     -4.49778214	     30.84191877	     71.18234984	    105.96977345
      1.90000000	    -22.56144160	      4.75902199	     -3.78136222	     -0.25816068	      0.72478599	     -0.55604008	     71.30788553	      3.38026414	     16.01027187	     85.40469821	      1.49059318	     32.76603873	    -15.19632866	     -7.49997487	     74.27346509	     -5.81210472	     -1.84776080	     82.83494543	      1.44574253	     26.49669709	    -15.49989209	     -7.49997487	    -16.86551260	     -4.31905373	      3.93653794	    141.42619354	     -6.54238655	     33.97464151	     74.15643257	    102.82849869	    143.14802064	     -4.69974216	     32.75760183	     70.82690610	    106.31429532
      1.91000000	    -22.39959064	      4.77620950	     -3.94869853	     -0.25050487	      0.73721238	     -0.55525130	     69.27807383	      3.35784527	     16.18764512	     83.20760033	      1.45224659	     31.76649441	    -15.23764295	     -7.49997512	     72.27294797	     -5.84666332	     -2.08717350	     80.81053610	      1.41040993	     25.38523550	    -15.32143508	     -7.49997512	    -15.27195155	     -4.39108796	      4.46007642	    142.75080388	     -6.60627704	     34.11665020	     75.04847892	    102.74652025	    144.40255628	     -4.66903203	     33.73987060	     70.95512548	    106.50519915
      1.92000000	    -22.20625090	      4.74387026	     -4.13464216	     -0.24299106	      0.75020043	     -0.55440396	     67.25441609	      3.33741332	     16.28744862	     80.92292095	      1.41237141	     30.40204588	    -15.54312878	     -7.49997543	     70.22183794	     -5.87445999	     -2.29536279	     78.66143220	      1.37290099	     24.07108795	    -15.39633961	     -7.49997543	    -13.66364620	     -4.48196715	      5.01028852	    143.97071967	     -6.94336000	     34.51083141	     75.89128560	    102.62615130	    145.65671454	     -4.53759484	     35.09014155	     70.66580879	    106.62079519
      1.93000000	    -22.03150006	      4.69914846	     -4.32498070	     -0.23573156	      0.76362909	     -0.55340490	     65.25694330	      3.34465274	     16.33628631	     78.48241608	      1.36977657	     28.05642379	    -17.05782270	     -7.49997610	     68.17005390	     -5.81935654	     -2.42180771	     76.33480544	      1.33229369	     22.07049124	    -16.49730301	     -7.49997610	    -12.02603526	     -4.67369900	      5.58945125	    145.16451143	     -7.58106993	     35.15117129	     76.75742876	    102.39173287	    147.01199295	     -4.14306794	     36.83823383	     69.69849155	    106.82949866
      1.94000000	    -21.67300514	      4.53552090	     -4.53104229	     -0.22827355	      0.77802665	     -0.55253144	     62.94432895	      3.35158460	     16.32365163	     75.82062153	      1.32331949	     25.79067729	    -17.98408420	     -7.49997683	     65.84965883	     -5.85764529	     -2.48382184	     73.86170445	      1.28912993	     20.08432534	    -17.02632473	     -7.49997683	    -10.44042371	     -4.60885354	      6.36794700	    145.93344102	     -8.05015671	     35.60267118	     77.12777709	    102.20254482	    147.56896423	     -3.77359137	     37.97787184	     69.00055022	    107.02858008
